# xmcd
#
# Track frame offsets:
#	150
#	14220
#	27400
#	43477
#	55695
#	73280
#	84805
#	100160
#	114810
#	135817
#	148207
#	166300
#	180587
#
# Disc length: 2653 seconds
#
# Revision: 1
# Processed by: cddbd v1.5.2PL0 Copyright (c) Steve Scherf et al.
# Submitted via: audiograbber 1.83.01
#
DISCID=af0a5b0d
DTITLE=The Abeels - Snowflakes And Diamonds
DYEAR=1999
DGENRE=Country/Folk
TTITLE0=High On A Mountain Top
TTITLE1=Abbylooga
TTITLE2=Those Memories
TTITLE3=All I Can Do Is My Best
TTITLE4=Eat At Joe's
TTITLE5=Tennessee Flattop Box
TTITLE6=Snowbird
TTITLE7=Long Long Drive
TTITLE8=Love At The Five And Dime
TTITLE9=Loggin' Man
TTITLE10=Snowflakes And Diamonds
TTITLE11=Steel Rails
TTITLE12=Virginia
EXTD=
EXTT0=
EXTT1=
EXTT2=
EXTT3=
EXTT4=
EXTT5=
EXTT6=
EXTT7=
EXTT8=
EXTT9=
EXTT10=
EXTT11=
EXTT12=
PLAYORDER=
